HIERARCHY
ROOT Hips
{
	OFFSET 0.00000 0.00000 0.00000
	CHANNELS 6 Xposition Yposition Zposition Zrotation Yrotation Xrotation 
	JOINT LHipJoint
	{
		OFFSET 0 0 0
		CHANNELS 3 Zrotation Yrotation Xrotation
		JOINT LeftHip
		{
			OFFSET 1.58895 -1.83665 0.71753
			CHANNELS 3 Zrotation Yrotation Xrotation
			JOINT LeftKnee
			{
				OFFSET 2.50528 -6.88321 0.00000
				CHANNELS 3 Zrotation Yrotation Xrotation
				JOINT LeftAnkle
				{
					OFFSET 2.63244 -7.23257 0.00000
					CHANNELS 3 Zrotation Yrotation Xrotation
					JOINT LeftToe
					{
						OFFSET 0.23691 -0.65090 1.72750
						CHANNELS 3 Zrotation Yrotation Xrotation
						End Site
						{
							OFFSET 0.00000 -0.00000 0.92561
						}
					}
				}
			}
		}
	}
	JOINT RHipJoint
	{
		OFFSET 0 0 0
		CHANNELS 3 Zrotation Yrotation Xrotation
		JOINT RightHip
		{
			OFFSET -1.51435 -1.83665 0.71753
			CHANNELS 3 Zrotation Yrotation Xrotation
			JOINT RightKnee
			{
				OFFSET -2.54551 -6.99375 0.00000
				CHANNELS 3 Zrotation Yrotation Xrotation
				JOINT RightAnkle
				{
					OFFSET -2.66027 -7.30903 0.00000
					CHANNELS 3 Zrotation Yrotation Xrotation
					JOINT RightToe
					{
						OFFSET -0.22981 -0.63138 2.03959
						CHANNELS 3 Zrotation Yrotation Xrotation
						End Site
						{
							OFFSET -0.00000 -0.00000 1.07060
						}
					}
				}
			}
		}
	}
	JOINT lowerback
	{
		OFFSET 0 0 0
		CHANNELS 3 Zrotation Yrotation Xrotation
		JOINT Chest
		{
			OFFSET -0.02651 1.86275 -0.11152
			CHANNELS 3 Zrotation Yrotation Xrotation
			JOINT Chest2
			{
				OFFSET 0.01019 1.86224 0.04087
				CHANNELS 3 Zrotation Yrotation Xrotation
				JOINT lowerneck
				{
					OFFSET 0 0 0
					CHANNELS 3 Zrotation Yrotation Xrotation
					JOINT Neck
					{
						OFFSET -0.01926 1.80512 0.08867
						CHANNELS 3 Zrotation Yrotation Xrotation
						JOINT Head
						{
							OFFSET 0.05516 1.76451 -0.38475
							CHANNELS 3 Zrotation Yrotation Xrotation
							End Site
							{
								OFFSET 0.01592 1.82587 -0.14001
							}
						}
					}
				}
				JOINT LeftCollar
				{
					OFFSET 0 0 0
					CHANNELS 3 Zrotation Yrotation Xrotation
					JOINT LeftShoulder
					{
						OFFSET 3.47116 1.51376 0.14491
CHANNELS 3 Zrotation Xrotation Yrotation
						JOINT LeftElbow
						{
OFFSET 0 -4.780950 0.000000
CHANNELS 3 Zrotation Xrotation Yrotation
							JOINT LeftWrist
							{
OFFSET 0 -3.586150 -0.000000
CHANNELS 3 Zrotation Xrotation Yrotation
								JOINT lhand
								{
									OFFSET 0 0 0
CHANNELS 3 Zrotation Xrotation Yrotation
									JOINT LFingers
									{
OFFSET 0 -0.659810 0.000000
CHANNELS 3 Zrotation Xrotation Yrotation
										End Site
										{
OFFSET 0 -0.531960 0.000000
										}
									}
								}
								JOINT LThumb
								{
OFFSET 0 0.000000 0.000000
CHANNELS 3 Zrotation Xrotation Yrotation
									End Site
									{
OFFSET 0 -0.540080 0.540080
									}
								}
							}
						}
					}
				}
				JOINT RightCollar
				{
					OFFSET 0 0 0
					CHANNELS 3 Zrotation Yrotation Xrotation
					JOINT RightShoulder
					{
						OFFSET -3.31725 1.61216 0.35156
CHANNELS 3 Zrotation Xrotation Yrotation
						JOINT RightElbow
						{
OFFSET 0 -4.489130 0.000000
CHANNELS 3 Zrotation Xrotation Yrotation
							JOINT RightWrist
							{
OFFSET 0 -3.705100 0.000000
CHANNELS 3 Zrotation Xrotation Yrotation
								JOINT rhand
								{
									OFFSET 0 0 0
CHANNELS 3 Zrotation Xrotation Yrotation
									JOINT RFingers
									{
OFFSET 0 -0.449140 0.000000
CHANNELS 3 Zrotation Xrotation Yrotation
										End Site
										{
OFFSET 0 -0.362110 0.000000
										}
									}
								}
								JOINT RThumb
								{
OFFSET 0 0.000000 0.000000
CHANNELS 3 Zrotation Xrotation Yrotation
									End Site
									{
OFFSET 0 -0.367630 0.367630
									}
								}
							}
						}
					}
				}
			}
		}
	}
}
MOTION
Frames: 6
Frame Time: 0.008333333333333333
0.607179 18.543450 5.952285 -3.705551 27.502572 6.898982 0.000000 0.000000 0.000000 -10.723447 -22.605107 -19.154357 3.760168 11.834195 35.147834 1.082564 -4.361072 -18.695912 8.125734 -16.211006 -53.014353 0.000000 0.000000 0.000000 16.966925 -15.843556 -0.232146 0.000000 0.000000 0.000000 -1.695036 -5.272923 -26.966174 -0.010106 -0.649022 1.783421 -0.474428 6.375872 15.679139 1.254484 8.443377 1.960033 -0.212800 4.137569 -6.891088 -11.360887 -10.861832 -7.047427 12.243631 -16.276568 25.621676 4.243766 -7.191099 11.469685 0.000000 0.000000 0.000000 9.638613 15.333631 -57.493981 87.494022 -59.976268 57.829934 10.797543 -36.026213 8.252640 0.000000 0.000000 0.000000 -7.125000 0.000000 0.000000 -11.598333 21.641510 -6.637517 0.000000 0.000000 0.000000 -13.834734 -6.143524 35.899534 -63.879240 -57.257253 -37.587135 -41.983615 18.259536 64.201847 0.000000 0.000000 0.000000 7.125000 0.000000 0.000000 145.489661 -78.357495 152.653490
0.596209 18.544251 5.947922 -3.652551 27.469009 6.939857 0.000000 0.000000 0.000000 -10.719205 -22.666871 -19.160600 3.751479 11.822204 35.105760 1.087278 -4.243615 -18.751580 8.228473 -16.284699 -53.381421 0.000000 0.000000 0.000000 16.966387 -15.746185 -0.262620 0.000000 0.000000 0.000000 -1.699057 -5.312819 -27.016220 -0.009706 -0.634676 1.744091 -0.598358 6.135398 15.400515 1.304911 8.112351 1.887913 0.004201 3.983316 -6.836259 -11.320677 -10.819426 -6.976155 11.966554 -16.163866 25.666007 4.157329 -7.169185 11.423754 0.000000 0.000000 0.000000 9.299027 15.349111 -57.347482 87.418310 -59.974816 57.764409 10.629107 -35.841338 8.345983 0.000000 0.000000 0.000000 -7.125000 0.000000 0.000000 -11.713110 21.554257 -6.729728 0.000000 0.000000 0.000000 -13.722021 -3.485220 37.115836 -66.387988 -57.784160 -39.703537 -41.250490 18.249288 64.530755 0.000000 0.000000 0.000000 7.125000 0.000000 0.000000 144.272126 -78.175286 151.775274
0.579875 18.549086 5.944773 -3.676749 26.394136 7.203370 0.000000 0.000000 0.000000 -10.606297 -22.060568 -19.424908 3.735861 11.800327 35.029256 1.120909 -3.998250 -19.080679 8.266079 -16.311532 -53.515506 0.000000 0.000000 0.000000 16.937106 -14.527415 -0.392270 0.000000 0.000000 0.000000 -1.680967 -5.506637 -26.996563 -0.006128 -0.503469 1.383446 -1.055130 6.287658 14.824142 1.289299 8.243711 1.736610 0.260409 4.062736 -6.746599 -11.499726 -10.849731 -6.827648 12.037980 -16.230884 25.790637 4.210693 -7.213861 11.476795 0.000000 0.000000 0.000000 9.115045 15.480775 -57.184494 87.500235 -59.976352 57.835316 10.592009 -35.717234 8.193672 0.000000 0.000000 0.000000 -7.125000 0.000000 0.000000 -11.749303 21.707115 -6.709637 0.000000 0.000000 0.000000 -12.916563 -0.668390 38.000733 -69.340969 -58.322299 -42.209746 -43.243322 20.050767 63.815330 0.000000 0.000000 0.000000 7.125000 0.000000 0.000000 147.739985 -78.494389 154.409297
0.576279 18.546515 5.934119 -3.576075 26.162696 7.189211 0.000000 0.000000 0.000000 -10.738700 -22.073429 -19.272827 3.718703 11.776370 34.945325 1.141617 -3.822675 -19.286718 8.323491 -16.352089 -53.719629 0.000000 0.000000 0.000000 16.802756 -14.260888 -0.317653 0.000000 0.000000 0.000000 -1.669047 -5.658029 -26.997497 -0.002616 -0.329325 0.904896 -1.104593 6.130523 14.723553 1.260081 8.027807 1.670528 0.308685 3.959196 -6.759014 -11.693970 -10.867053 -6.862474 12.125050 -16.289596 26.126693 4.268049 -7.239600 11.651195 0.000000 0.000000 0.000000 8.985440 15.532348 -57.055205 87.437684 -59.975195 57.781132 10.662806 -35.701174 8.333761 0.000000 0.000000 0.000000 -7.125000 0.000000 0.000000 -11.689923 21.565349 -6.712793 0.000000 0.000000 0.000000 -12.022116 2.062534 38.620435 -72.053134 -58.744695 -44.523366 -41.898446 19.013405 64.083175 0.000000 0.000000 0.000000 7.125000 0.000000 0.000000 145.434914 -78.443220 152.553912
0.566069 18.543871 5.929806 -3.589975 25.948628 7.149120 0.000000 0.000000 0.000000 -10.711000 -21.893412 -19.219878 3.708189 11.761668 34.893938 1.148624 -3.892965 -19.338428 8.317607 -16.347939 -53.698675 0.000000 0.000000 0.000000 16.810989 -13.997840 -0.247829 0.000000 0.000000 0.000000 -1.665794 -5.721994 -27.010927 -0.001606 -0.253427 0.696207 -1.161211 6.024263 14.558023 1.296961 7.884026 1.610080 0.421564 3.892668 -6.741979 -11.940085 -10.973564 -6.660310 12.233032 -16.464102 26.201854 4.329616 -7.338812 11.702456 0.000000 0.000000 0.000000 8.929803 15.561563 -57.057006 87.459865 -59.975603 57.800389 10.664265 -35.697847 8.206725 0.000000 0.000000 0.000000 -7.125000 0.000000 0.000000 -11.696683 21.691836 -6.682570 0.000000 0.000000 0.000000 -11.152437 4.795515 39.117987 -74.711069 -59.095540 -46.799810 -42.040255 18.978618 63.919408 0.000000 0.000000 0.000000 7.125000 0.000000 0.000000 145.693047 -78.549068 152.693822
0.580846 18.531734 5.923675 -3.386732 27.030284 6.816276 0.000000 0.000000 0.000000 -11.058236 -22.676542 -18.622649 3.692396 11.739424 34.816234 1.138399 -4.130287 -19.217407 8.336263 -16.361074 -53.764970 0.000000 0.000000 0.000000 16.632782 -15.171237 0.045733 0.000000 0.000000 0.000000 -1.702462 -5.541651 -27.167602 -0.002231 -0.205102 0.563585 -0.615990 5.401310 14.767131 1.249928 7.145760 1.670185 0.212236 3.518642 -6.702919 -12.109138 -11.101030 -6.568565 12.423251 -16.705633 26.347707 4.394063 -7.445377 11.816005 0.000000 0.000000 0.000000 8.928731 15.526897 -57.052045 87.333195 -59.973095 57.690729 10.751316 -35.633010 8.127141 0.000000 0.000000 0.000000 -7.125000 0.000000 0.000000 -11.639245 21.768069 -6.627751 0.000000 0.000000 0.000000 -10.191105 7.300266 39.163274 -76.621687 -59.311817 -48.440829 -37.825845 16.218538 64.383525 0.000000 0.000000 0.000000 7.125000 0.000000 0.000000 137.680850 -78.642120 145.928828
